<mxfile host="app.diagrams.net" modified="2021-06-29T08:27:22.613Z" agent="5.0 (Macintosh; Intel Mac OS X 10_15_5) AppleWebKit/537.36 (KHTML, like Gecko) Chrome/91.0.4472.114 Safari/537.36" etag="v9ajxwLb4ehd_JFhveTt" version="14.8.2" type="github">
  <diagram id="8ymucuJVsFFm5RRctRgF" name="Page-1">
    <mxGraphModel dx="1186" dy="773" grid="1" gridSize="10" guides="1" tooltips="1" connect="1" arrows="1" fold="1" page="1" pageScale="1" pageWidth="827" pageHeight="1169" math="0" shadow="0">
      <root>
        <mxCell id="0" />
        <mxCell id="1" parent="0" />
        <mxCell id="uIVasyIH1hPPmVtOjq3P-3" value="就是测试用的" style="edgeStyle=orthogonalEdgeStyle;rounded=0;orthogonalLoop=1;jettySize=auto;html=1;exitX=0.5;exitY=1;exitDx=0;exitDy=0;entryX=1;entryY=0.5;entryDx=0;entryDy=0;entryPerimeter=0;" edge="1" parent="1" source="uIVasyIH1hPPmVtOjq3P-1" target="uIVasyIH1hPPmVtOjq3P-2">
          <mxGeometry relative="1" as="geometry" />
        </mxCell>
        <mxCell id="uIVasyIH1hPPmVtOjq3P-1" value="测试用的啊" style="rounded=1;whiteSpace=wrap;html=1;" vertex="1" parent="1">
          <mxGeometry x="280" y="190" width="120" height="60" as="geometry" />
        </mxCell>
        <mxCell id="uIVasyIH1hPPmVtOjq3P-2" value="这个也是" style="shape=cylinder3;whiteSpace=wrap;html=1;boundedLbl=1;backgroundOutline=1;size=15;" vertex="1" parent="1">
          <mxGeometry x="180" y="330" width="60" height="80" as="geometry" />
        </mxCell>
      </root>
    </mxGraphModel>
  </diagram>
</mxfile>
